<svg id="Layer_1" data-name="Layer 1" xmlns="http://www.w3.org/2000/svg" viewBox="0 0 1080 612"><defs><style>.cls-1,.cls-13,.cls-14,.cls-15,.cls-16,.cls-2,.cls-20,.cls-21,.cls-22,.cls-23,.cls-25,.cls-26,.cls-6,.cls-7,.cls-8{fill:none;}.cls-1,.cls-2,.cls-22,.cls-25{stroke:#000;}.cls-1,.cls-13,.cls-14,.cls-15,.cls-16,.cls-2,.cls-20,.cls-21,.cls-22,.cls-23,.cls-26,.cls-3,.cls-4,.cls-6,.cls-7,.cls-8{stroke-miterlimit:10;}.cls-1,.cls-2,.cls-21,.cls-23{stroke-width:0.75px;}.cls-2{stroke-dasharray:3.99 3.99;}.cls-3,.cls-4{fill:#fff;}.cls-15,.cls-16,.cls-20,.cls-23,.cls-3,.cls-4,.cls-6,.cls-7,.cls-8{stroke:#231f20;}.cls-15,.cls-3{stroke-width:2px;}.cls-10,.cls-5{font-size:14px;}.cls-10,.cls-12,.cls-17,.cls-24,.cls-27,.cls-5{fill:#231f20;}.cls-10,.cls-12,.cls-24,.cls-5{font-family:Roboto-Medium, Roboto;font-weight:500;}.cls-20,.cls-25,.cls-6{stroke-width:0.25px;}.cls-13,.cls-14,.cls-26,.cls-7,.cls-8{stroke-width:0.5px;}.cls-8{stroke-dasharray:8.84 8.84;}.cls-9{letter-spacing:-0.02em;}.cls-10,.cls-12{opacity:0.46;}.cls-11{letter-spacing:-0.01em;}.cls-12{font-size:10px;}.cls-13,.cls-14,.cls-26{stroke:#f7941d;}.cls-14{stroke-dasharray:4.12 4.12;}.cls-17,.cls-24,.cls-27{font-size:11px;}.cls-17{font-family:Roboto-Bold, Roboto;font-weight:700;}.cls-18,.cls-27{font-family:Roboto-Light, Roboto;font-weight:300;}.cls-19{letter-spacing:-0.02em;}.cls-20{stroke-dasharray:4.02 4.02;}.cls-21{stroke:#050606;}.cls-22{stroke-width:0.85px;}.cls-25{stroke-linecap:round;stroke-linejoin:round;}.cls-26{stroke-dasharray:4.2 4.2;}</style></defs><line class="cls-1" x1="638.8" y1="252.9" x2="638.8" y2="254.9"/><path class="cls-2" d="M638.8,258.88V374a40.58,40.58,0,0,1-40.53,40.54H139.34A40.58,40.58,0,0,1,98.8,374V215.78"/><line class="cls-1" x1="98.8" y1="213.79" x2="98.8" y2="211.79"/><path class="cls-3" d="M116.8,374V95.07a22.54,22.54,0,0,1,22.54-22.53H599.2a21.6,21.6,0,0,1,21.6,21.6V374a22.54,22.54,0,0,1-22.54,22.54H139.34A22.54,22.54,0,0,1,116.8,374Z"/><polyline class="cls-4" points="620.43 252.9 407.42 252.9 332.8 211.79 117.17 211.79"/><text class="cls-5" transform="translate(669.94 124.03)">2 x r0.3” </text><line class="cls-6" x1="70.91" y1="396.54" x2="85.94" y2="396.54"/><line class="cls-6" x1="78.18" y1="211.79" x2="78.18" y2="282.55"/><line class="cls-6" x1="78.18" y1="317.74" x2="78.18" y2="396.54"/><text class="cls-5" transform="translate(65.78 303.56)">2.5”</text><line class="cls-6" x1="70.91" y1="211.79" x2="85.94" y2="211.79"/><line class="cls-6" x1="645.6" y1="395.03" x2="660.63" y2="395.03"/><line class="cls-6" x1="652.87" y1="252.9" x2="652.87" y2="307.33"/><line class="cls-6" x1="652.87" y1="334.41" x2="652.87" y2="395.03"/><line class="cls-6" x1="645.6" y1="252.9" x2="660.63" y2="252.9"/><text class="cls-5" transform="translate(645.6 327.98)">2”</text><line class="cls-7" x1="368.8" y1="67.2" x2="368.8" y2="71.7"/><line class="cls-8" x1="368.8" y1="80.55" x2="368.8" y2="429.89"/><line class="cls-7" x1="368.8" y1="434.31" x2="368.8" y2="438.81"/><line class="cls-6" x1="620.8" y1="58.19" x2="620.8" y2="44.02"/><line class="cls-6" x1="117.17" y1="51.34" x2="345.19" y2="51.34"/><line class="cls-6" x1="394.22" y1="51.34" x2="620.8" y2="51.34"/><line class="cls-6" x1="117.17" y1="58.19" x2="117.17" y2="44.02"/><text class="cls-5" transform="translate(363.84 53.42)">7”</text><path class="cls-7" d="M340,72.54h57.6a0,0,0,0,1,0,0V89.19a7.2,7.2,0,0,1-7.2,7.2H347.2a7.2,7.2,0,0,1-7.2-7.2V72.54A0,0,0,0,1,340,72.54Z"/><rect class="cls-7" x="340" y="108.87" width="57.6" height="286.16" transform="translate(737.6 503.91) rotate(180)"/><path class="cls-4" d="M439.73,139.18h71.06a.94.94,0,0,1,.94.94V858.24a.94.94,0,0,1-.94.94H440.67a.94.94,0,0,1-.94-.94V139.18A0,0,0,0,1,439.73,139.18Z" transform="translate(974.91 23.45) rotate(90)"/><line class="cls-6" x1="835.73" y1="567.38" x2="835.73" y2="551.88"/><line class="cls-6" x1="114.51" y1="559.88" x2="419" y2="559.88"/><line class="cls-6" x1="525.25" y1="559.88" x2="835.73" y2="559.88"/><line class="cls-6" x1="114.51" y1="567.38" x2="114.51" y2="551.88"/><text class="cls-5" transform="translate(429.06 562.38)">10” ykk zipper</text><text class="cls-5" transform="translate(445.44 208.51)">f<tspan class="cls-9" x="4.96" y="0">r</tspan><tspan x="9.64" y="0">ont panel </tspan></text><text class="cls-5" transform="translate(444.18 300.87)">f<tspan class="cls-9" x="4.96" y="0">r</tspan><tspan x="9.64" y="0">ont pocket</tspan></text><line class="cls-6" x1="663.6" y1="118.33" x2="617.11" y2="80.53"/><line class="cls-6" x1="854.96" y1="535.18" x2="869.99" y2="535.18"/><line class="cls-6" x1="862.23" y1="463.18" x2="862.23" y2="485.51"/><line class="cls-6" x1="862.23" y1="514.32" x2="862.23" y2="535.18"/><line class="cls-6" x1="854.71" y1="463.18" x2="869.74" y2="463.18"/><text class="cls-5" transform="translate(857.56 502.93)">1”</text><text class="cls-10" transform="translate(393.58 346.08) rotate(-90)">nylon st<tspan class="cls-11" x="49.3" y="0">r</tspan><tspan x="54.02" y="0">ap </tspan></text><text class="cls-12" transform="translate(348.13 85.4)">nylon tab </text><line class="cls-6" x1="340" y1="405.97" x2="340" y2="422.21"/><line class="cls-6" x1="400.66" y1="414.85" x2="389.04" y2="414.85"/><line class="cls-6" x1="351.83" y1="414.85" x2="340" y2="414.85"/><line class="cls-6" x1="400.66" y1="405.97" x2="400.66" y2="422.21"/><text class="cls-5" transform="translate(359.77 419.39)">0.8”</text><line class="cls-13" x1="397.6" y1="76.75" x2="395.6" y2="76.75"/><line class="cls-14" x1="391.48" y1="76.75" x2="344.06" y2="76.75"/><line class="cls-13" x1="342" y1="76.75" x2="340" y2="76.75"/><line class="cls-15" x1="597.71" y1="181.56" x2="643.89" y2="181.56"/><line class="cls-15" x1="94.08" y1="181.56" x2="140.26" y2="181.56"/><text class="cls-5" transform="translate(657.36 189.23)">zipper s<tspan class="cls-11" x="49.53" y="0">t</tspan><tspan x="53.98" y="0">ops here</tspan></text><path class="cls-16" d="M117.33,182.24h0V95.76a22.54,22.54,0,0,1,22.53-22.54H599.73a21.6,21.6,0,0,1,21.6,21.6v87.42h0"/><line class="cls-6" x1="71.07" y1="181.77" x2="86.1" y2="181.77"/><line class="cls-6" x1="78.85" y1="73.22" x2="78.85" y2="117.13"/><line class="cls-6" x1="78.34" y1="157.24" x2="78.34" y2="181.77"/><text class="cls-5" transform="translate(67.78 138.94)">1.5”</text><line class="cls-6" x1="71.58" y1="73.22" x2="86.61" y2="73.22"/><text class="cls-17" transform="translate(802.28 305.91)">Note: <tspan class="cls-18"><tspan x="0" y="13.2">Measurements are exact.</tspan><tspan x="0" y="26.4">Ext</tspan><tspan class="cls-19" x="15.14" y="26.4">r</tspan><tspan x="18.63" y="26.4">a cut off based material </tspan><tspan x="0" y="39.6">and manufacture</tspan></tspan></text><line class="cls-6" x1="620.8" y1="261.92" x2="618.8" y2="261.92"/><polyline class="cls-20" points="614.78 261.92 407.32 261.92 332.55 220.81 120.46 220.81"/><line class="cls-6" x1="118.45" y1="220.81" x2="116.45" y2="220.81"/><text class="cls-10" transform="translate(174.36 232.34)"><tspan class="cls-11">t</tspan><tspan x="4.45" y="0">op stitch</tspan></text><rect class="cls-21" x="335.73" y="108.87" width="66.11" height="7.25" rx="3.63"/><path class="cls-1" d="M410.85,112.06s.56,10.69-9,11c-11.16.32-62.77,0-62.77,0A11,11,0,0,1,328,110.4c0-.1,0-.19.05-.29,1.71-9.81,11.94-9.06,11.94-9.06h54.6s6,.31,7-4.8-4.48-7.89-6.83-7.26l-53.09-.08a6.27,6.27,0,0,0-5.94,4.31c-.65,2-1.81,3.76-3.88,3.45-4.26-.64-3.88-4.23-4.07-7.77A8.3,8.3,0,0,1,336.37,80H395a19.86,19.86,0,0,1,7.3,1.36c4.18,1.64,9.08,5.21,8.46,12.93l.05,17.73"/><rect class="cls-21" x="837.45" y="125.24" width="66.11" height="7.25" rx="3.63"/><path class="cls-1" d="M912.57,128.42s.56,10.69-9,11c-11.16.33-62.77,0-62.77,0a11,11,0,0,1-11.07-12.63c0-.09,0-.19,0-.29,1.71-9.81,11.94-9.06,11.94-9.06h54.6s6,.32,7-4.8-4.48-7.89-6.83-7.25l-53.09-.08a6.26,6.26,0,0,0-5.94,4.3c-.65,2-1.81,3.77-3.88,3.46-4.26-.64-3.88-4.24-4.07-7.77a8.3,8.3,0,0,1,8.55-8.87h58.67a20.07,20.07,0,0,1,7.3,1.36c4.18,1.64,9.08,5.22,8.46,12.93l.05,17.73"/><rect class="cls-22" x="789.06" y="288.89" width="163.98" height="68.25" rx="12"/><path class="cls-23" d="M936.57,96.4h-3.43c-1.5,0-2.73,1.73-2.73,3.84v5.6a79.49,79.49,0,0,0,.59,9.65l.28,2.28a48.12,48.12,0,0,1-.1,12.46l-.77,5.47c0,2.11,1.23,3.84,2.73,3.84h3.43c1.5,0,2.32-1.82,2.73-3.84l1.12-7.61a35.26,35.26,0,0,0,0-10.41l-.33-2.16a63.25,63.25,0,0,1-.75-9.75v-5.53C939.3,98.13,938.07,96.4,936.57,96.4Z"/><line class="cls-6" x1="829.52" y1="160.66" x2="854.88" y2="160.66"/><line class="cls-6" x1="829.52" y1="168.17" x2="829.52" y2="153.14"/><line class="cls-6" x1="912.57" y1="160.66" x2="891.52" y2="160.66"/><line class="cls-6" x1="912.57" y1="153.14" x2="912.57" y2="168.17"/><text class="cls-5" transform="translate(864.98 164.19)">1”</text><text class="cls-24" transform="translate(835.07 86.1)">gun metal g-hook</text><path class="cls-25" d="M167.58,501.37v1.07a1.48,1.48,0,0,0,.51,1.13c.2.2.55.3.76.5.34,0,.62.15,1,.16l.44,0"/><path class="cls-25" d="M208.79,504.26a5.71,5.71,0,0,0,1-.13,2.85,2.85,0,0,0,1-.47,1.94,1.94,0,0,0,.27-.23,1.51,1.51,0,0,0,.36-1,2.35,2.35,0,0,1,0-.59"/><path class="cls-25" d="M211.45,497.17c0-.05,0-.1,0-.15,0-.94,0-1.87,0-2.81,0-.73-.5-1.28-1.56-1.6a4.29,4.29,0,0,0-1.25-.16H170.43a7.21,7.21,0,0,0-1.32.14,2,2,0,0,0-.58.26,1.84,1.84,0,0,0-.86.89,1.33,1.33,0,0,0-.09.44v1.23"/><path class="cls-25" d="M169.57,501.39c0,.26.31.39.58.53a3.06,3.06,0,0,0,.93.28,4.14,4.14,0,0,0,.7.06h8c.44,0,.88,0,1.32,0h2.64a3.84,3.84,0,0,0,1.09-.12,2.47,2.47,0,0,0,1.35-.85,1.48,1.48,0,0,0,.25-.91q0-2,0-4a1.34,1.34,0,0,0-.37-1.06,2.69,2.69,0,0,0-1.55-.74c-.23,0-.47,0-.7-.07"/><path class="cls-25" d="M179.92,494.49a.59.59,0,0,0-.23,0h-7.77a3.92,3.92,0,0,0-2,.44c-.21.13-.43.26-.45.47"/><path class="cls-25" d="M207.83,501.27a.51.51,0,0,1-.19-.41c0-1.11,0-2.21,0-3.31,0-.21-.06-.29-.47-.29h-1.74c-.29,0-.39,0-.39.25v4a.45.45,0,0,0,.08.22,2,2,0,0,0,.55,0h.92a1.07,1.07,0,0,1,.54.1"/><path class="cls-25" d="M140.12,502.9c0,.16.11.29.16.44.12.42.22.83.36,1.25s.22.75.34,1.12.21.73.31,1.1c0,.11.07.22.1.34s0,.14-.17.18a3.69,3.69,0,0,1-.58.09l-1.42.16c-.25,0-.32,0-.37-.18-.13-.44-.27-.88-.39-1.32s-.21-.68-.28-1-.17-.55-.25-.83-.15-.51-.24-.77a.33.33,0,0,1,0-.22"/><path class="cls-25" d="M131.1,504a.53.53,0,0,0,.35,0,5.66,5.66,0,0,1,.81-.12c.39,0,.76-.1,1.14-.14s.33,0,.4.19c.19.61.35,1.22.53,1.83.12.37.23.75.34,1.12A6.1,6.1,0,0,1,135,508a.59.59,0,0,1-.34.11c-.36,0-.71.08-1.07.13l-.83.08a.21.21,0,0,1-.19,0,.41.41,0,0,1-.13-.18c-.13-.45-.25-.9-.38-1.35s-.35-1.11-.5-1.67c-.08-.29-.17-.57-.25-.86a.79.79,0,0,1,0-.22"/><path class="cls-25" d="M207.86,501.27a.53.53,0,0,0,.43-.56c0-1.57,0-3.14,0-4.71,0-.54-.47-1-1.16-1.27a3.86,3.86,0,0,0-1.55-.26h-.83a1.08,1.08,0,0,0-.4.06,2.12,2.12,0,0,1-.44,0,2.46,2.46,0,0,0-.71.21,2,2,0,0,0-1,.78,1,1,0,0,0-.16.54c0,.69,0,1.38,0,2.06,0,.43,0,.85,0,1.27s0,.85,0,1.28a1.38,1.38,0,0,0,.83,1.12,3.74,3.74,0,0,0,1.72.44,11.91,11.91,0,0,0,1.58,0A1.61,1.61,0,0,0,207,502"/><path class="cls-25" d="M199.39,494.22v8.29"/><path class="cls-25" d="M190.39,494.22v8.29"/><path class="cls-25" d="M169.06,492.58a2.82,2.82,0,0,0-.67-.55,7.06,7.06,0,0,0-1-.54,8.09,8.09,0,0,0-1.2-.46,12.59,12.59,0,0,0-1.28-.29,9.36,9.36,0,0,0-1.3-.1,7,7,0,0,0-1.37.11,8.14,8.14,0,0,0-3.57,1.43,4.76,4.76,0,0,0-.69.55.74.74,0,0,1-.47.18"/><path class="cls-25" d="M211.57,501.68a3.25,3.25,0,0,0,.7.05h1.53c.31,0,.36,0,.36-.24,0-1.34,0-2.68,0-4,0-.15-.09-.21-.33-.21h-2a2,2,0,0,0-.34.06"/><path class="cls-25" d="M145.34,506.87s0-.05.06-.05c.47,0,.91-.11,1.37-.15a6.32,6.32,0,0,0,.86-.11c.16,0,.16-.08.16-.15a2.56,2.56,0,0,0-.15-.56c-.11-.38-.22-.77-.34-1.15s-.15-.48-.21-.72-.21-.67-.28-1-.13-.4-.19-.6-.2-.2-.48-.17-.77.11-1.16.14c-.22,0-.44.05-.65.09s-.31.1-.25.25.14.43.2.65l.33,1.12c.06.2.13.4.18.59.11.36.19.73.31,1.08a2.06,2.06,0,0,0,.25.69"/><path class="cls-25" d="M156.07,495.41a1,1,0,0,0,.39.06h10.72c.61,0,1.21,0,1.81,0a1.35,1.35,0,0,0,.45-.05.13.13,0,0,1,.11,0,1.72,1.72,0,0,0,.6.05h10a.3.3,0,0,1,.16,0,3.24,3.24,0,0,1,1.51.88,1.21,1.21,0,0,1,.28.72c0,.85,0,1.71,0,2.57,0,.65-.5,1.13-1.39,1.45-.12.05-.24.11-.36.15"/><path class="cls-25" d="M180.29,501.28a3.18,3.18,0,0,0-.69,0l-.49,0H170a1,1,0,0,0-.38.05h-.13a8.14,8.14,0,0,0-1.91,0h-.11a1.17,1.17,0,0,0-.37,0H156.65a1.5,1.5,0,0,0-.37,0s-.06,0-.09,0c-.36-.08-.74,0-1.1-.1a2.71,2.71,0,0,1-1.7-.88,1.29,1.29,0,0,1-.26-.84c0-.77,0-1.53,0-2.3a1.18,1.18,0,0,1,.29-.87,2.37,2.37,0,0,1,.43-.4,1.21,1.21,0,0,0,.2-.19"/><path class="cls-25" d="M168.85,504.08a3.53,3.53,0,0,1-.74.54,7.82,7.82,0,0,1-1.65.76,8.67,8.67,0,0,1-1.67.39,8.84,8.84,0,0,1-1.78.06,8.57,8.57,0,0,1-2.74-.65.72.72,0,0,0-.7,0,.78.78,0,0,1-.35.05c-.26,0-.5.07-.76.1s-.37,0-.42-.2l-.24-.85a.34.34,0,0,1,.06-.36"/><path class="cls-25" d="M128.53,508.8a2.33,2.33,0,0,0-.19-.85c-.14-.56-.33-1.11-.48-1.66s-.32-1-.45-1.54c-.07-.28-.16-.31-.6-.25s-1,.13-1.55.18a1.67,1.67,0,0,0-.4.1"/><path class="cls-25" d="M115.77,489s.06,0,.09,0a4,4,0,0,0,1,.22c.38.07.75.15,1.13.2s.3,0,.35-.14c.16-.41.37-.82.53-1.24s.37-.88.55-1.31.36-.87.57-1.3c.1-.22,0-.3-.37-.36-.55-.08-1.08-.2-1.63-.27h0c-.3,0-.38,0-.46.16s-.2.48-.3.71-.28.71-.44,1.05-.29.72-.45,1.07-.29.65-.41,1a1.42,1.42,0,0,0,0,.22"/><path class="cls-25" d="M143.38,493.79a7.45,7.45,0,0,1-1.07-.14c-.35,0-.69-.13-1-.18-.19,0-.28-.12-.23-.24.17-.42.34-.85.53-1.27s.31-.71.46-1.07l.6-1.42.13-.23c0-.1.17-.11.29-.09.41,0,.79.12,1.18.19l.73.13a.45.45,0,0,1,.28.12c-.21.58-.5,1.14-.72,1.72s-.38.86-.55,1.3-.28.65-.43,1c0,0,0,.1-.07.13s-.07.14,0,.21"/><path class="cls-25" d="M204.28,494.56a.35.35,0,0,1,.05.24v3.35a.26.26,0,0,1-.09.25c-.67,0-1.38,0-2.09,0"/><path class="cls-25" d="M122.1,509.58c.09-.19,0-.37-.08-.55-.12-.42-.26-.84-.36-1.26s-.19-.57-.26-.86-.14-.45-.2-.68-.13-.44-.19-.65v-.05c-.07-.25-.25-.32-.65-.26l-1.6.19c-.36.05-.38.09-.3.33.15.5.29,1,.44,1.52s.27.92.41,1.38c.09.3.18.61.26.91s.13.3.51.25l1.7-.2a1,1,0,0,1,.51,0"/><path class="cls-25" d="M152.89,501.45a1.92,1.92,0,0,1,.31.83c.07.25.17.5.23.75s.21.75.32,1.13.25.9.4,1.34c.07.25,0,.3-.35.34l-1.72.21c-.25,0-.4,0-.44-.19l-.3-1c-.13-.43-.24-.86-.38-1.28s-.25-.93-.41-1.38a1.26,1.26,0,0,1-.05-.33c0-.09,0-.14.19-.16.72-.08,1.44-.2,2.18-.24"/><path class="cls-25" d="M124.77,504.75c.08,0,.09,0,.09.09a3.33,3.33,0,0,0,.21.81c.12.53.31,1.06.44,1.59.08.31.18.62.28.93s.14.51.23.77.15.17.35.16.63-.08.95-.11a9.47,9.47,0,0,0,1.19-.17.14.14,0,0,1,.11,0"/><path class="cls-25" d="M136.58,488.05a6.41,6.41,0,0,1,1.07.15l1,.18c.27,0,.31.08.23.26-.15.33-.28.66-.42,1-.23.52-.45,1-.67,1.56s-.4.9-.58,1.36c0,.05-.08.09-.12.13v0h0"/><path class="cls-25" d="M149.07,490.12c0,.05.09.09,0,.15a3.17,3.17,0,0,0-.4.83c-.13.25-.23.5-.34.76-.19.44-.37.88-.56,1.33s-.29.65-.42,1l0,0c-.14.28-.12.31.32.4s1.1.19,1.65.29a.62.62,0,0,0,.19,0c.15,0,.19,0,.22.12"/><path class="cls-25" d="M130.27,486.94a17.57,17.57,0,0,1,1.79.29l.25,0c.32.06.36.09.28.29s-.27.6-.4.9-.2.53-.32.79c-.21.42-.37.85-.57,1.28a9.53,9.53,0,0,0-.38.93c0,.09-.21.17,0,.28"/><path class="cls-25" d="M149.16,490.24a4.49,4.49,0,0,1,1,.14c.35.07.7.12,1,.2s.31.09.24.27c-.22.5-.44,1-.65,1.49-.3.69-.59,1.39-.89,2.08a1.1,1.1,0,0,1-.25.46s0,0,0,0h0"/><path class="cls-25" d="M155.34,491.22s.09.08,0,.12a6,6,0,0,0-.55,1.15c-.22.44-.38.89-.57,1.33s-.44,1-.68,1.56c0,.06,0,.13,0,.19"/><path class="cls-25" d="M126.32,486.26a1.63,1.63,0,0,1-.21.62c-.12.33-.27.66-.41,1s-.39.89-.58,1.34-.31.73-.47,1.09a.28.28,0,0,1-.07.09.15.15,0,0,0,0,.25"/><path class="cls-25" d="M136.5,487.93c0,.06.09.1,0,.17a1.3,1.3,0,0,0-.29.54c-.15.37-.31.73-.46,1.1-.24.59-.51,1.17-.75,1.76-.09.22-.19.43-.27.65s0,.2.19.22c.65.08,1.26.24,1.9.32.09,0,.21,0,.28,0s.06,0,0,.09"/><path class="cls-25" d="M123.93,485.86a2,2,0,0,0-.3.58l-.39.94c-.26.6-.5,1.2-.77,1.79-.1.23-.18.45-.29.67s-.05.27.27.33l1.41.25a1.68,1.68,0,0,0,.63.07"/><path class="cls-25" d="M130.19,486.84c0,.05.07.08,0,.15a4.19,4.19,0,0,0-.43.91c-.13.3-.27.59-.39.89l-.84,2a1.76,1.76,0,0,0-.12.39.76.76,0,0,0,.47.16c.56.08,1.1.23,1.67.28h.21"/><path class="cls-25" d="M156.21,501.37a1.75,1.75,0,0,0,.35.76,9.59,9.59,0,0,0,.69.92l.37.41"/><path class="cls-25" d="M158.13,504c.15,0,.19.12.29.18a8.61,8.61,0,0,0,1.15.71c.1.05.19.12.19.22"/><path class="cls-25" d="M157.88,491.73c-.07,0-.14,0-.14.1a2.13,2.13,0,0,1-.25.66c0,.07-.08.15,0,.22"/><path class="cls-25" d="M157.07,493.62c-.23.37-.51.74-.72,1.12a2.12,2.12,0,0,0-.26.55c0,.12-.14.17-.3.17a4.66,4.66,0,0,0-1.46.26.68.68,0,0,1-.49,0,.7.7,0,0,0-.3-.09"/><path class="cls-25" d="M140.08,503a1.51,1.51,0,0,0-.6,0c-.58.06-1.16.15-1.74.22a.75.75,0,0,1-.3,0"/><path class="cls-25" d="M123.92,485.77c0,.1.1.08.15.09a13.08,13.08,0,0,1,1.68.28,4.89,4.89,0,0,1,.53.09c.12,0,.19-.05.3-.05"/><path class="cls-25" d="M157.76,491.77a2.07,2.07,0,0,0-.72-.19l-1.06-.2c-.18,0-.37,0-.56-.06"/><path class="cls-25" d="M180.18,494.55c-.05.18.13.33.14.5a.64.64,0,0,1,0,.43"/><path class="cls-25" d="M158.11,505.34c-.06.06-.14.11-.11.19"/><path class="cls-25" d="M221.59,493.93c-.19,0-.23.09-.23.2v4.06a.45.45,0,0,0,.06.21c.8,0,1.62,0,2.41,0a.39.39,0,0,0,.08-.29v-3.92a.28.28,0,0,0-.06-.23,1.87,1.87,0,0,0-.54-.05h-1.69"/><path class="cls-25" d="M215.1,493.93c-.33.06-.33.06-.33.28v3.91c0,.26.06.29.47.29H217a.85.85,0,0,0,.38-.05.41.41,0,0,0,0-.23v-3.92a.31.31,0,0,0-.06-.24,1.61,1.61,0,0,0-.45,0h-1.74"/><path class="cls-25" d="M228.14,493.93c-.24,0-.29.11-.29.25,0,1.33,0,2.66,0,4a.43.43,0,0,0,.06.22c.8,0,1.62,0,2.41,0a.44.44,0,0,0,.08-.29v-3.95c0-.2,0-.25-.39-.25h-1.86"/><path class="cls-25" d="M244.42,497.26c-.22,0-.28.11-.28.25,0,1.31,0,2.62,0,3.94,0,.23.08.28.45.28h1.74c.33,0,.42-.05.41-.27,0-1.32,0-2.64,0-4,0-.18,0-.22-.38-.23h-1.92"/><path class="cls-25" d="M218.39,497.26c-.26,0-.25.14-.25.26v2.92c0,.32,0,.64,0,1a.41.41,0,0,0,.1.31h2.36a.41.41,0,0,0,.1-.34v-3.85c0-.2,0-.26-.42-.26h-1.86"/><path class="cls-25" d="M234.63,493.93c-.19,0-.23.09-.23.2v4.06a.45.45,0,0,0,.06.21c.8,0,1.62,0,2.4,0a.44.44,0,0,0,.12-.36v-3.85c0-.25,0-.28-.45-.28h-1.87"/><path class="cls-25" d="M224.89,497.26c-.23,0-.28.12-.28.25v4c0,.2.08.25.39.25h1.86a1.43,1.43,0,0,0,.29,0c.06-.13.09-4.18,0-4.39a1,1,0,0,0-.39-.05h-1.88"/><path class="cls-25" d="M231.43,497.26c-.23,0-.28.12-.28.25v4c0,.2.08.25.4.25h1.81a1.43,1.43,0,0,0,.29,0,.44.44,0,0,0,.08-.33v-3.82c0-.27-.08-.29-.47-.29h-1.81"/><path class="cls-25" d="M237.93,497.26c-.22,0-.26.11-.26.23v4c0,.23.08.24.37.24h1.81a1.87,1.87,0,0,0,.34,0,.39.39,0,0,0,.06-.25c0-1.31,0-2.62,0-3.93,0-.19,0-.26-.42-.26H238"/><path class="cls-25" d="M241.13,493.93c-.21,0-.26.1-.26.22,0,1.35,0,2.7,0,4.06,0,.17,0,.2.32.2h1.9a1.36,1.36,0,0,0,.29,0,.37.37,0,0,0,.06-.25v-3.92a.36.36,0,0,0-.06-.24,2.89,2.89,0,0,0-.52,0h-1.72"/><path class="cls-25" d="M257.46,497.18c-.22,0-.28.12-.28.26q0,2,0,3.93c0,.24.08.29.45.29q.87,0,1.74,0c.33,0,.41-.06.41-.27,0-1.32,0-2.65,0-4,0-.19,0-.22-.38-.23-.64,0-1.28,0-1.92,0"/><path class="cls-25" d="M247.67,493.85c-.19,0-.23.1-.23.21v4.06a.45.45,0,0,0,.06.2c.8,0,1.62,0,2.4,0A.42.42,0,0,0,250,498v-3.85c0-.24-.05-.27-.45-.28h-1.88"/><path class="cls-25" d="M251,497.18c-.22,0-.26.12-.26.24v4c0,.23.08.24.37.24.61,0,1.21,0,1.81,0a1.27,1.27,0,0,0,.34,0,.36.36,0,0,0,.06-.25c0-1.3,0-2.61,0-3.92,0-.19,0-.26-.42-.26H251"/><path class="cls-25" d="M254.17,493.85c-.21,0-.26.11-.26.23,0,1.35,0,2.7,0,4.05,0,.17,0,.21.32.21h1.9a1.36,1.36,0,0,0,.29,0,.39.39,0,0,0,.06-.25v-3.93a.35.35,0,0,0-.06-.23,2.87,2.87,0,0,0-.52,0h-1.72"/><path class="cls-25" d="M267.37,493.94c-.2,0-.23.1-.23.21v4.06a.58.58,0,0,0,.05.2c.81,0,1.63,0,2.42,0a.42.42,0,0,0,.08-.28v-3.92a.31.31,0,0,0-.06-.24,2.31,2.31,0,0,0-.54-.05h-1.7"/><path class="cls-25" d="M260.87,493.94c-.32.06-.32.06-.32.29v3.9c0,.26.06.3.46.3h1.72a.85.85,0,0,0,.38-.05.43.43,0,0,0,0-.23v-3.92a.36.36,0,0,0-.06-.24,1.64,1.64,0,0,0-.45-.05H260.9"/><path class="cls-25" d="M273.91,493.94c-.24,0-.28.12-.28.26q0,2,0,4a.49.49,0,0,0,.06.22c.81,0,1.62,0,2.41,0a.38.38,0,0,0,.09-.28V494.2c0-.2,0-.26-.4-.26h-1.85"/><path class="cls-25" d="M290.2,497.28c-.23,0-.28.11-.28.25,0,1.31,0,2.62,0,3.93,0,.24.08.29.44.29h1.74c.34,0,.42-.06.42-.27v-4c0-.18,0-.22-.37-.23h-1.93"/><path class="cls-25" d="M264.17,497.28c-.26,0-.26.14-.26.26v2.92c0,.32,0,.64,0,1a.44.44,0,0,0,.1.31h2.36a.41.41,0,0,0,.1-.34c0-1.28,0-2.57,0-3.85,0-.2,0-.27-.42-.27h-1.86"/><path class="cls-25" d="M280.41,493.94c-.2,0-.23.1-.23.21v4.06a.58.58,0,0,0,.05.2c.81,0,1.63,0,2.41,0a.41.41,0,0,0,.11-.36v-3.84c0-.25,0-.28-.44-.28h-1.88"/><path class="cls-25" d="M270.67,497.28c-.23,0-.29.11-.29.25,0,1.32,0,2.64,0,4,0,.2.08.26.39.26h1.86a2.85,2.85,0,0,0,.29,0c.06-.13.09-4.19,0-4.39a1,1,0,0,0-.39-.06h-1.88"/><path class="cls-25" d="M277.21,497.28c-.23,0-.28.11-.28.25v4c0,.2.08.26.39.26h1.81a2.36,2.36,0,0,0,.29,0,.41.41,0,0,0,.09-.33c0-1.27,0-2.55,0-3.82,0-.27-.09-.3-.47-.3h-1.81"/><path class="cls-25" d="M283.71,497.28c-.22,0-.26.11-.26.23v4c0,.23.08.24.37.24h1.81a1.27,1.27,0,0,0,.34,0,.36.36,0,0,0,.06-.25c0-1.3,0-2.61,0-3.92,0-.19,0-.26-.42-.26h-1.88"/><path class="cls-25" d="M286.91,493.94c-.21,0-.26.11-.26.23v4.05c0,.17.05.21.33.21h1.9a1.43,1.43,0,0,0,.29,0,.39.39,0,0,0,.06-.25v-3.92a.36.36,0,0,0-.06-.24,2.87,2.87,0,0,0-.52-.05h-1.72"/><path class="cls-25" d="M303.24,497.2c-.23,0-.28.11-.28.25,0,1.32,0,2.63,0,3.94,0,.23.08.29.44.28h1.74c.34,0,.42-.05.42-.26v-4c0-.19,0-.23-.37-.23-.64,0-1.28,0-1.93,0"/><path class="cls-25" d="M293.45,493.87c-.2,0-.24.1-.23.21v4.05a.58.58,0,0,0,0,.21c.81,0,1.63,0,2.41,0a.42.42,0,0,0,.11-.36v-3.85c0-.24-.05-.28-.44-.28h-1.88"/><path class="cls-25" d="M296.74,497.2c-.22,0-.25.11-.25.24v4c0,.22.08.24.37.23h1.81a1.27,1.27,0,0,0,.34,0,.32.32,0,0,0,.05-.25c0-1.31,0-2.61,0-3.92,0-.2,0-.26-.42-.27h-1.88"/><path class="cls-25" d="M300,493.87c-.21,0-.26.11-.26.22v4.06c0,.17.05.21.33.21h1.9a2.85,2.85,0,0,0,.29,0,.39.39,0,0,0,.06-.25v-3.93a.33.33,0,0,0-.06-.23,2.19,2.19,0,0,0-.52-.05H300"/><path class="cls-25" d="M313.08,493.93c-.2,0-.24.09-.24.21,0,1.35,0,2.7,0,4.05a.45.45,0,0,0,.06.21c.81,0,1.62,0,2.41,0a.39.39,0,0,0,.09-.29v-3.92a.33.33,0,0,0-.06-.23,2,2,0,0,0-.55-.05H313.1"/><path class="cls-25" d="M306.58,493.93c-.33.06-.33.06-.33.28v3.91c0,.26.06.3.47.3h1.72a.71.71,0,0,0,.37-.06c.05-.05,0-.14,0-.23v-3.92a.29.29,0,0,0-.06-.23,1.3,1.3,0,0,0-.45-.05H306.6"/><path class="cls-25" d="M319.62,493.93c-.24,0-.28.12-.28.25v4a.41.41,0,0,0,.06.22c.8,0,1.62,0,2.41,0a.38.38,0,0,0,.08-.29v-3.95c0-.2,0-.25-.39-.25h-1.86"/><path class="cls-25" d="M335.91,497.26c-.23,0-.29.11-.29.25,0,1.31,0,2.63,0,3.94,0,.23.07.28.44.28h1.74c.34,0,.42-.05.42-.27v-4c0-.19,0-.23-.37-.24h-1.93"/><path class="cls-25" d="M309.87,497.26c-.25,0-.25.14-.25.27v3.88a.48.48,0,0,0,.09.31h2.37a.41.41,0,0,0,.09-.34v-3.85c0-.21,0-.27-.42-.27H309.9"/><path class="cls-25" d="M326.12,493.93c-.2,0-.24.09-.24.21v4.05a.45.45,0,0,0,.06.21c.81,0,1.62,0,2.41,0a.46.46,0,0,0,.11-.36v-3.85c0-.24,0-.28-.44-.28h-1.88"/><path class="cls-25" d="M316.37,497.26c-.23,0-.28.12-.28.25v4c0,.2.08.25.4.25h1.85a1.36,1.36,0,0,0,.29,0c.06-.13.1-4.18,0-4.38a.89.89,0,0,0-.4-.06h-1.88"/><path class="cls-25" d="M322.91,497.26c-.23,0-.28.12-.28.25,0,1.32,0,2.65,0,4,0,.2.08.25.39.25h1.81a1.43,1.43,0,0,0,.29,0,.38.38,0,0,0,.08-.32v-3.82c0-.28-.08-.3-.46-.3h-1.81"/><path class="cls-25" d="M329.41,497.26c-.22,0-.26.11-.26.24,0,1.33,0,2.66,0,4,0,.23.08.24.37.24h1.81a1.23,1.23,0,0,0,.33,0,.37.37,0,0,0,.06-.25v-3.92c0-.2,0-.26-.42-.27h-1.88"/><path class="cls-25" d="M332.61,493.93c-.2,0-.25.1-.25.22,0,1.35,0,2.71,0,4.06,0,.17.05.21.32.21h1.9a2.36,2.36,0,0,0,.29,0,.35.35,0,0,0,.06-.26v-3.92a.29.29,0,0,0-.06-.23,2.14,2.14,0,0,0-.52-.05h-1.71"/><path class="cls-25" d="M349,497.19c-.23,0-.29.11-.29.25,0,1.31,0,2.62,0,3.94,0,.23.07.28.44.28h1.74c.34,0,.42-.05.42-.27,0-1.32,0-2.64,0-4,0-.18,0-.22-.38-.23H349"/><path class="cls-25" d="M339.15,493.86c-.19,0-.23.09-.23.2v4.06a.45.45,0,0,0,.06.2c.8,0,1.62,0,2.41,0a.46.46,0,0,0,.11-.36v-3.85c0-.25-.05-.28-.44-.28h-1.88"/><path class="cls-25" d="M342.45,497.19c-.22,0-.26.11-.26.23,0,1.34,0,2.67,0,4,0,.23.08.24.38.24h1.81l.33,0a.39.39,0,0,0,.06-.25v-3.93c0-.19,0-.26-.42-.26h-1.88"/><path class="cls-25" d="M345.65,493.86c-.2,0-.25.1-.25.22,0,1.35,0,2.7,0,4.05,0,.17,0,.21.32.21h1.9a1.36,1.36,0,0,0,.29,0,.33.33,0,0,0,.06-.25v-3.92a.31.31,0,0,0-.06-.24,2.2,2.2,0,0,0-.52,0h-1.72"/><path class="cls-25" d="M358.85,494c-.19,0-.23.09-.23.2v4.06a.45.45,0,0,0,.06.21c.8,0,1.62,0,2.41,0a.39.39,0,0,0,.08-.29v-3.92a.28.28,0,0,0-.06-.23,1.87,1.87,0,0,0-.54-.05h-1.69"/><path class="cls-25" d="M352.36,494c-.33.06-.33.06-.33.28v3.91c0,.26.06.29.47.29h1.71a.85.85,0,0,0,.38-.05.41.41,0,0,0,0-.23v-3.92a.31.31,0,0,0-.06-.24,1.61,1.61,0,0,0-.45,0h-1.74"/><path class="cls-25" d="M365.4,494c-.24,0-.28.11-.28.25v4a.43.43,0,0,0,.06.22c.8,0,1.62,0,2.41,0a.44.44,0,0,0,.08-.29V494.2c0-.2,0-.25-.39-.25h-1.86"/><path class="cls-25" d="M381.68,497.28c-.22,0-.28.11-.28.25,0,1.31,0,2.62,0,3.94,0,.23.07.28.44.28h1.74c.33,0,.42-.05.42-.27,0-1.32,0-2.64,0-4,0-.18,0-.22-.38-.23h-1.92"/><path class="cls-25" d="M355.65,497.28c-.25,0-.25.14-.25.26v3.88a.37.37,0,0,0,.09.31h2.36a.41.41,0,0,0,.1-.34v-3.85c0-.2,0-.26-.42-.26h-1.85"/><path class="cls-25" d="M371.89,494c-.19,0-.23.09-.23.2v4.06a.45.45,0,0,0,.06.21c.8,0,1.62,0,2.4,0a.44.44,0,0,0,.12-.36v-3.85c0-.25-.05-.28-.44-.28h-1.88"/><path class="cls-25" d="M362.15,497.28c-.23,0-.28.12-.28.25v4c0,.2.08.25.39.25h1.86a1.36,1.36,0,0,0,.29,0c.06-.13.09-4.18,0-4.39a1,1,0,0,0-.39-.05h-1.88"/><path class="cls-25" d="M368.69,497.28c-.23,0-.28.12-.28.25v4c0,.2.08.25.4.25h1.81a1.43,1.43,0,0,0,.29,0,.44.44,0,0,0,.08-.33v-3.82c0-.27-.08-.29-.47-.29h-1.81"/><path class="cls-25" d="M375.19,497.28c-.22,0-.26.11-.26.23v4c0,.23.08.24.37.24h1.81a1.87,1.87,0,0,0,.34,0,.39.39,0,0,0,.06-.25v-3.93c0-.19,0-.26-.42-.26h-1.88"/><path class="cls-25" d="M378.39,494c-.21,0-.26.1-.26.22,0,1.35,0,2.7,0,4.06,0,.17,0,.2.32.2h1.9a1.36,1.36,0,0,0,.29,0,.37.37,0,0,0,.06-.25v-3.92a.31.31,0,0,0-.06-.24,2.89,2.89,0,0,0-.52,0h-1.72"/><path class="cls-25" d="M394.72,497.2c-.22,0-.28.12-.28.26q0,2,0,3.93c0,.24.08.29.45.29h1.74c.33,0,.42-.06.42-.27,0-1.32,0-2.65,0-4,0-.19,0-.22-.38-.23-.64,0-1.28,0-1.92,0"/><path class="cls-25" d="M384.93,493.87c-.19,0-.23.1-.23.21v4.06a.45.45,0,0,0,.06.2c.8,0,1.62,0,2.4,0a.42.42,0,0,0,.12-.36v-3.85c0-.24,0-.27-.44-.28H385"/><path class="cls-25" d="M388.23,497.2c-.22,0-.26.12-.26.24v4c0,.22.08.24.37.24h1.81a1.27,1.27,0,0,0,.34,0,.36.36,0,0,0,.06-.25v-3.92c0-.19,0-.26-.42-.26h-1.88"/><path class="cls-25" d="M391.43,493.87c-.21,0-.26.11-.26.23,0,1.35,0,2.7,0,4,0,.17,0,.21.32.21h1.9a1.36,1.36,0,0,0,.29,0,.39.39,0,0,0,.06-.25v-3.93a.35.35,0,0,0-.06-.23,2.87,2.87,0,0,0-.52-.05h-1.72"/><path class="cls-25" d="M167.64,502.53c0,.72.49,1.28,1.55,1.59a4.29,4.29,0,0,0,1.25.17h38.19a8.08,8.08,0,0,0,1.32-.14,2.48,2.48,0,0,0,1.44-1.15"/><path class="cls-25" d="M404.21,494c-.19,0-.23.09-.23.2v4.06a.45.45,0,0,0,.06.2c.8,0,1.62,0,2.41,0a.36.36,0,0,0,.08-.28v-3.92a.31.31,0,0,0-.06-.24,2.31,2.31,0,0,0-.54-.05h-1.69"/><path class="cls-25" d="M397.72,494c-.33,0-.33,0-.33.28v3.9c0,.26.06.3.47.3h1.71a.85.85,0,0,0,.38,0,.41.41,0,0,0,0-.23v-3.92a.31.31,0,0,0-.06-.24,1.59,1.59,0,0,0-.45-.05h-1.74"/><path class="cls-25" d="M410.76,494c-.24,0-.29.11-.28.25v4a.39.39,0,0,0,.06.22c.8,0,1.62,0,2.41,0a.4.4,0,0,0,.08-.28v-3.95c0-.2,0-.25-.39-.25h-1.86"/><path class="cls-25" d="M427,497.37c-.22,0-.28.11-.28.25,0,1.31,0,2.62,0,3.94,0,.23.08.28.45.28H429c.33,0,.42,0,.42-.27,0-1.32,0-2.64,0-4,0-.18,0-.22-.38-.23h-1.92"/><path class="cls-25" d="M401,497.37c-.25,0-.25.14-.25.26v2.92c0,.32,0,.64,0,1a.44.44,0,0,0,.1.31h2.36a.41.41,0,0,0,.1-.34v-3.85c0-.2,0-.27-.42-.26H401"/><path class="cls-25" d="M417.25,494c-.19,0-.23.09-.23.2v4.06a.45.45,0,0,0,.06.2c.8,0,1.62,0,2.4,0a.41.41,0,0,0,.12-.35v-3.85c0-.25-.05-.28-.44-.28-.63,0-1.26,0-1.88,0"/><path class="cls-25" d="M407.51,497.37c-.23,0-.28.11-.28.25v4c0,.2.08.25.39.25h1.86a2.58,2.58,0,0,0,.29,0c.06-.13.09-4.18,0-4.39a1,1,0,0,0-.39-.05h-1.88"/><path class="cls-25" d="M414.05,497.37c-.23,0-.28.11-.28.25v4c0,.2.08.25.4.25H416a2.85,2.85,0,0,0,.29,0,.44.44,0,0,0,.08-.33v-3.82c0-.27-.08-.3-.47-.29h-1.81"/><path class="cls-25" d="M420.55,497.37c-.22,0-.26.11-.26.23v4c0,.23.08.24.37.24h1.81a1.87,1.87,0,0,0,.34,0,.39.39,0,0,0,.06-.25v-3.93c0-.19,0-.26-.42-.26h-1.88"/><path class="cls-25" d="M423.75,494c-.21,0-.26.1-.26.22,0,1.35,0,2.7,0,4.05,0,.17,0,.21.32.21h1.9a1.36,1.36,0,0,0,.29,0,.37.37,0,0,0,.06-.25v-3.92a.31.31,0,0,0-.06-.24,2.87,2.87,0,0,0-.52-.05h-1.72"/><path class="cls-25" d="M440.08,497.29c-.22,0-.28.11-.28.25,0,1.32,0,2.63,0,3.94,0,.24.08.29.45.28H442c.33,0,.42-.05.41-.26,0-1.33,0-2.65,0-4,0-.19,0-.23-.38-.23-.64,0-1.28,0-1.92,0"/><path class="cls-25" d="M430.29,494c-.19,0-.23.1-.23.21v4.06a.45.45,0,0,0,.06.2c.8,0,1.62,0,2.4,0a.43.43,0,0,0,.12-.36v-3.85c0-.24-.05-.28-.45-.28h-1.87"/><path class="cls-25" d="M433.59,497.29c-.22,0-.26.11-.26.24v4c0,.22.08.24.37.23h1.81a1.27,1.27,0,0,0,.34,0,.37.37,0,0,0,.06-.25c0-1.31,0-2.61,0-3.92,0-.19,0-.26-.42-.27h-1.88"/><path class="cls-25" d="M436.79,494c-.21,0-.26.11-.26.22,0,1.36,0,2.71,0,4.06,0,.17,0,.21.32.21h1.9a1.36,1.36,0,0,0,.29,0,.39.39,0,0,0,.06-.25v-3.93a.35.35,0,0,0-.06-.23,2.19,2.19,0,0,0-.52-.05h-1.72"/><path class="cls-25" d="M450,494.05c-.19,0-.23.1-.23.21v4.06a.45.45,0,0,0,.06.2c.8,0,1.62,0,2.41,0a.37.37,0,0,0,.08-.28v-3.93a.3.3,0,0,0-.06-.23,2.31,2.31,0,0,0-.54-.05H450"/><path class="cls-25" d="M443.49,494.05c-.32.06-.32.06-.32.28v3.91c0,.26.06.3.46.3h1.72a.85.85,0,0,0,.38-.05.43.43,0,0,0,0-.23v-3.93a.35.35,0,0,0-.06-.23,1.59,1.59,0,0,0-.45-.05h-1.74"/><path class="cls-25" d="M456.53,494.05c-.24,0-.28.12-.28.25,0,1.34,0,2.67,0,4a.49.49,0,0,0,.06.22c.81,0,1.62,0,2.41,0a.38.38,0,0,0,.09-.28v-4c0-.19,0-.25-.4-.25h-1.85"/><path class="cls-25" d="M472.82,497.38c-.23,0-.28.11-.28.26q0,2,0,3.93c0,.24.08.29.44.29h1.74c.34,0,.42-.05.42-.26v-4c0-.19,0-.23-.37-.23-.64,0-1.28,0-1.92,0"/><path class="cls-25" d="M446.79,497.38c-.26,0-.26.15-.26.27v2.92c0,.32,0,.64,0,1a.44.44,0,0,0,.1.31H449a.42.42,0,0,0,.1-.34c0-1.28,0-2.57,0-3.85,0-.2,0-.27-.42-.27h-1.86"/><path class="cls-25" d="M463,494.05c-.2,0-.23.1-.23.21v4.06a.58.58,0,0,0,.05.2c.81,0,1.63,0,2.41,0a.42.42,0,0,0,.11-.36v-3.85c0-.24,0-.27-.44-.28h-1.88"/><path class="cls-25" d="M453.29,497.38c-.23,0-.29.12-.28.26v4c0,.2.08.25.39.25h1.86a1.45,1.45,0,0,0,.29,0c.06-.12.09-4.18,0-4.38a1,1,0,0,0-.39-.06h-1.88"/><path class="cls-25" d="M459.83,497.38c-.23,0-.28.12-.28.26v4c0,.2.08.25.4.25h1.8a1.27,1.27,0,0,0,.29,0,.39.39,0,0,0,.09-.32c0-1.27,0-2.55,0-3.82,0-.28-.09-.3-.47-.3h-1.81"/><path class="cls-25" d="M466.33,497.38c-.22,0-.26.12-.26.24v4c0,.22.08.24.37.24h1.81a1.27,1.27,0,0,0,.34,0,.37.37,0,0,0,.06-.25c0-1.3,0-2.61,0-3.92,0-.19,0-.26-.42-.27h-1.88"/><path class="cls-25" d="M469.53,494.05c-.21,0-.26.11-.26.22,0,1.36,0,2.71,0,4.06,0,.17,0,.21.32.21h1.9a1.36,1.36,0,0,0,.29,0,.39.39,0,0,0,.06-.25v-3.93a.35.35,0,0,0-.06-.23,2.87,2.87,0,0,0-.52-.05h-1.72"/><path class="cls-25" d="M485.86,497.31c-.23,0-.28.11-.28.25,0,1.31,0,2.63,0,3.94,0,.23.08.28.44.28h1.74c.34,0,.42,0,.42-.27v-4c0-.19,0-.23-.37-.24h-1.93"/><path class="cls-25" d="M476.07,494c-.2,0-.23.09-.23.21v4.05a.58.58,0,0,0,.05.21c.81,0,1.63,0,2.41,0a.42.42,0,0,0,.11-.36v-3.85c0-.24,0-.28-.44-.28h-1.88"/><path class="cls-25" d="M479.36,497.31c-.21,0-.25.11-.25.24v4c0,.23.08.24.37.24h1.81a1.27,1.27,0,0,0,.34,0,.37.37,0,0,0,.06-.25c0-1.31,0-2.62,0-3.92,0-.2,0-.27-.42-.27h-1.88"/><path class="cls-25" d="M482.57,494c-.21,0-.26.1-.26.22v4.06c0,.17.05.21.33.21.63,0,1.26,0,1.9,0a2.85,2.85,0,0,0,.29,0,.4.4,0,0,0,.06-.26v-3.92a.32.32,0,0,0-.06-.23,2.19,2.19,0,0,0-.52,0h-1.72"/><path class="cls-25" d="M495.7,494c-.2,0-.24.09-.24.21,0,1.35,0,2.7,0,4.05a.45.45,0,0,0,.06.21c.81,0,1.62,0,2.41,0a.41.41,0,0,0,.09-.29v-3.92a.32.32,0,0,0-.06-.23,2,2,0,0,0-.55,0h-1.69"/><path class="cls-25" d="M489.2,494c-.32.06-.32.06-.32.28v3.91c0,.26.05.29.46.29h1.72a.69.69,0,0,0,.37,0,.34.34,0,0,0,0-.23v-3.92a.28.28,0,0,0-.06-.23,1.3,1.3,0,0,0-.45,0h-1.74"/><path class="cls-25" d="M502.24,494c-.24,0-.28.11-.28.25v4a.41.41,0,0,0,.06.22c.8,0,1.62,0,2.41,0a.39.39,0,0,0,.08-.29c0-1.32,0-2.63,0-3.95,0-.2,0-.25-.4-.25h-1.86"/><path class="cls-25" d="M518.53,497.37c-.23,0-.29.11-.29.25,0,1.31,0,2.63,0,3.94,0,.23.07.28.44.28h1.74c.34,0,.42,0,.42-.27v-4c0-.19,0-.23-.37-.24h-1.93"/><path class="cls-25" d="M492.49,497.37c-.25,0-.25.14-.25.27v3.87a.45.45,0,0,0,.09.31h2.37a.4.4,0,0,0,.09-.34v-3.84c0-.21,0-.27-.42-.27h-1.85"/><path class="cls-25" d="M508.74,494c-.2,0-.24.09-.24.21,0,1.35,0,2.7,0,4.05a.45.45,0,0,0,.06.21c.81,0,1.62,0,2.41,0a.42.42,0,0,0,.11-.36v-3.85c0-.24-.05-.28-.44-.28h-1.88"/><path class="cls-25" d="M499,497.37c-.23,0-.28.12-.28.25v4c0,.2.08.25.4.25H501a1.36,1.36,0,0,0,.29,0c.07-.13.1-4.18,0-4.38a.89.89,0,0,0-.4-.06H499"/><path class="cls-25" d="M505.53,497.37c-.23,0-.28.12-.28.25,0,1.32,0,2.65,0,4,0,.2.08.25.39.25h1.81a1.36,1.36,0,0,0,.29,0c.1-.1.08-.21.08-.33v-3.81c0-.28-.08-.3-.46-.3h-1.81"/><path class="cls-25" d="M512,497.37c-.22,0-.26.11-.26.24,0,1.33,0,2.66,0,4,0,.23.08.24.37.24H514l.33,0a.34.34,0,0,0,.06-.25v-3.92c0-.2,0-.27-.42-.27h-1.88"/><path class="cls-25" d="M515.23,494c-.2,0-.25.1-.25.22v4.06c0,.17,0,.21.32.2h1.91a1.43,1.43,0,0,0,.29,0,.37.37,0,0,0,0-.25v-3.92a.28.28,0,0,0-.06-.23,2.14,2.14,0,0,0-.52,0h-1.71"/><path class="cls-25" d="M531.57,497.3c-.23,0-.29.11-.29.25,0,1.31,0,2.62,0,3.93,0,.24.07.29.44.29h1.74c.34,0,.42-.06.42-.27v-4c0-.19,0-.22-.37-.23h-1.93"/><path class="cls-25" d="M521.78,494c-.2,0-.24.1-.24.21v4.06a.45.45,0,0,0,.06.2c.81,0,1.62,0,2.41,0a.44.44,0,0,0,.11-.36v-3.84c0-.25,0-.28-.44-.28H521.8"/><path class="cls-25" d="M525.07,497.3c-.22,0-.26.11-.26.23,0,1.33,0,2.67,0,4,0,.23.08.24.37.24H527a1.24,1.24,0,0,0,.33,0,.36.36,0,0,0,.06-.25v-3.92c0-.19,0-.26-.42-.26h-1.88"/><path class="cls-25" d="M528.27,494c-.2,0-.25.11-.25.23,0,1.35,0,2.7,0,4.05,0,.17.05.21.32.21h1.9a1.29,1.29,0,0,0,.29,0,.34.34,0,0,0,.06-.25v-3.92a.31.31,0,0,0-.06-.24A2.78,2.78,0,0,0,530,494c-.57,0-1.14,0-1.71,0"/><path class="cls-25" d="M541.47,494.06c-.19,0-.23.09-.23.2v4.06a.45.45,0,0,0,.06.2c.8,0,1.62,0,2.41,0a.37.37,0,0,0,.09-.28c0-1.31,0-2.62,0-3.92a.36.36,0,0,0-.06-.24,2.45,2.45,0,0,0-.55-.05H541.5"/><path class="cls-25" d="M535,494.06c-.33.05-.33.05-.33.28v3.9c0,.26.06.3.47.3h1.71a.83.83,0,0,0,.38-.05.34.34,0,0,0,0-.23v-3.92a.31.31,0,0,0-.06-.24,1.59,1.59,0,0,0-.45-.05H535"/><path class="cls-25" d="M548,494.06c-.24,0-.28.11-.28.25v4a.39.39,0,0,0,.06.22c.8,0,1.62,0,2.41,0a.36.36,0,0,0,.08-.28v-3.95c0-.2,0-.25-.39-.25H548"/><path class="cls-25" d="M564.31,497.39c-.23,0-.29.11-.29.25,0,1.31,0,2.62,0,3.94,0,.23.07.28.44.28h1.74c.34,0,.42-.05.42-.27,0-1.32,0-2.64,0-4,0-.18,0-.22-.38-.23h-1.92"/><path class="cls-25" d="M538.27,497.39c-.25,0-.25.14-.25.26v3.88a.43.43,0,0,0,.09.31h2.36a.38.38,0,0,0,.1-.34v-3.85c0-.2,0-.27-.42-.26H538.3"/><path class="cls-25" d="M554.51,494.06c-.19,0-.23.09-.23.2v4.06a.45.45,0,0,0,.06.2c.8,0,1.62,0,2.4,0a.41.41,0,0,0,.12-.35v-3.85c0-.25-.05-.28-.44-.28h-1.88"/><path class="cls-25" d="M544.77,497.39c-.23,0-.28.11-.28.25v4c0,.19.08.25.4.25h1.85a2.58,2.58,0,0,0,.29,0c.06-.13.1-4.18,0-4.39a1,1,0,0,0-.4-.05h-1.88"/><path class="cls-25" d="M551.31,497.39c-.23,0-.28.11-.28.25,0,1.32,0,2.64,0,4,0,.19.09.25.4.25h1.81a2.85,2.85,0,0,0,.29,0,.44.44,0,0,0,.08-.33v-3.82c0-.27-.08-.3-.46-.29h-1.81"/><path class="cls-25" d="M557.81,497.39c-.22,0-.26.11-.26.23,0,1.34,0,2.67,0,4,0,.23.08.24.37.24h1.81a1.87,1.87,0,0,0,.34,0,.39.39,0,0,0,.06-.25v-3.93c0-.19,0-.26-.42-.26h-1.88"/><path class="cls-25" d="M561,494.06c-.21,0-.26.1-.26.22,0,1.35,0,2.7,0,4.05,0,.17,0,.21.32.21H563a1.36,1.36,0,0,0,.29,0,.37.37,0,0,0,.06-.25v-3.92a.31.31,0,0,0-.06-.24,2.87,2.87,0,0,0-.52-.05H561"/><path class="cls-25" d="M577.34,497.31c-.22,0-.28.11-.28.25,0,1.32,0,2.63,0,3.94,0,.24.07.29.44.28h1.74c.33,0,.42,0,.42-.26,0-1.33,0-2.65,0-4,0-.19,0-.23-.38-.23-.64,0-1.28,0-1.92,0"/><path class="cls-25" d="M567.55,494c-.19,0-.23.1-.23.21v4.06a.45.45,0,0,0,.06.2c.8,0,1.62,0,2.4,0a.43.43,0,0,0,.12-.36v-3.85c0-.24,0-.28-.44-.28h-1.88"/><path class="cls-25" d="M570.85,497.31c-.22,0-.26.11-.26.24v4c0,.22.08.24.37.23h1.81a1.27,1.27,0,0,0,.34,0,.37.37,0,0,0,.06-.25v-3.92c0-.19,0-.26-.42-.27h-1.88"/><path class="cls-25" d="M574.05,494c-.21,0-.26.11-.26.22,0,1.36,0,2.71,0,4.06,0,.17,0,.21.32.21H576a1.36,1.36,0,0,0,.29,0,.39.39,0,0,0,.06-.25v-3.93a.3.3,0,0,0-.06-.23,2.19,2.19,0,0,0-.52,0h-1.72"/><path class="cls-25" d="M591.3,497.26c-.22,0-.28.11-.28.25,0,1.31,0,2.62,0,3.93,0,.24.07.29.44.29h1.74c.34,0,.42-.06.42-.27,0-1.32,0-2.65,0-4,0-.19,0-.22-.38-.23h-1.92"/><path class="cls-25" d="M581.51,493.92c-.19,0-.23.1-.23.21v4.06a.45.45,0,0,0,.06.2c.8,0,1.62,0,2.4,0a.42.42,0,0,0,.12-.36v-3.84c0-.25-.05-.28-.44-.28h-1.88"/><path class="cls-25" d="M584.81,497.26c-.22,0-.26.11-.26.23v4c0,.23.08.24.37.24h1.81a1.27,1.27,0,0,0,.34,0,.36.36,0,0,0,.06-.25v-3.92c0-.19,0-.26-.42-.26h-1.88"/><path class="cls-25" d="M588,493.92c-.21,0-.26.11-.26.23,0,1.35,0,2.7,0,4.05,0,.17,0,.21.32.21H590a1.36,1.36,0,0,0,.29,0,.39.39,0,0,0,.06-.25v-3.92a.31.31,0,0,0-.06-.24,2.87,2.87,0,0,0-.52-.05H588"/><path class="cls-25" d="M604.34,497.18c-.22,0-.28.11-.28.25,0,1.32,0,2.63,0,3.94,0,.23.08.28.45.28h1.74c.33,0,.42,0,.42-.26,0-1.33,0-2.65,0-4,0-.19,0-.23-.38-.23-.64,0-1.28,0-1.92,0"/><path class="cls-25" d="M594.55,493.85c-.19,0-.23.1-.23.21v4.05a.45.45,0,0,0,.06.21c.8,0,1.62,0,2.4,0a.43.43,0,0,0,.12-.36v-3.85c0-.24,0-.28-.44-.28h-1.88"/><path class="cls-25" d="M597.85,497.18c-.22,0-.26.11-.26.24v4c0,.22.08.24.37.23h1.81a1.27,1.27,0,0,0,.34,0,.37.37,0,0,0,.06-.25v-3.92c0-.2,0-.26-.42-.27h-1.88"/><path class="cls-25" d="M601.05,493.85c-.21,0-.26.11-.26.22,0,1.35,0,2.71,0,4.06,0,.17,0,.21.32.21H603a2.58,2.58,0,0,0,.29,0,.4.4,0,0,0,.06-.26v-3.92a.33.33,0,0,0-.06-.23,2.19,2.19,0,0,0-.52,0h-1.72"/><path class="cls-25" d="M614.25,493.94c-.19,0-.23.1-.23.21v4.06a.45.45,0,0,0,.06.2c.8,0,1.62,0,2.41,0a.37.37,0,0,0,.08-.28v-3.93a.29.29,0,0,0-.06-.23,1.87,1.87,0,0,0-.54-.05h-1.69"/><path class="cls-25" d="M607.76,493.94c-.33.06-.33.06-.33.28v3.91c0,.26.06.3.46.3h1.72a.74.74,0,0,0,.38-.06.38.38,0,0,0,0-.22v-3.93A.33.33,0,0,0,610,494a1.59,1.59,0,0,0-.45-.05h-1.74"/><path class="cls-25" d="M620.79,493.94c-.23,0-.28.12-.28.25,0,1.34,0,2.67,0,4a.47.47,0,0,0,.05.22c.81,0,1.62,0,2.41,0a.38.38,0,0,0,.09-.28v-4c0-.2,0-.25-.4-.25h-1.85"/><path class="cls-25" d="M637.08,497.27c-.23,0-.28.11-.28.25,0,1.32,0,2.63,0,3.94,0,.23.08.29.45.28H639c.33,0,.41-.05.41-.26,0-1.33,0-2.65,0-4,0-.19,0-.23-.38-.23-.64,0-1.28,0-1.92,0"/><path class="cls-25" d="M611.05,497.27c-.26,0-.26.15-.26.27v2.92c0,.32,0,.64,0,1a.44.44,0,0,0,.1.31h2.36a.42.42,0,0,0,.1-.34c0-1.29,0-2.57,0-3.85,0-.21,0-.27-.42-.27h-1.86"/><path class="cls-25" d="M627.29,493.94c-.19,0-.23.1-.23.21v4.06a.45.45,0,0,0,.06.2c.8,0,1.62,0,2.4,0a.43.43,0,0,0,.12-.36c0-1.28,0-2.56,0-3.85,0-.24,0-.28-.44-.28h-1.88"/><path class="cls-25" d="M617.55,497.27c-.23,0-.28.12-.28.25v4c0,.2.08.25.39.25h1.86a1.43,1.43,0,0,0,.29,0c.06-.13.09-4.18,0-4.38a1,1,0,0,0-.39-.06h-1.88"/><path class="cls-25" d="M624.09,497.27c-.23,0-.28.12-.28.25v4c0,.2.08.25.4.25H626a1.43,1.43,0,0,0,.29,0,.42.42,0,0,0,.08-.32c0-1.28,0-2.55,0-3.82,0-.28-.09-.3-.47-.3h-1.81"/><path class="cls-25" d="M630.59,497.27c-.22,0-.26.11-.26.24v4c0,.22.08.24.37.23h1.81a1.27,1.27,0,0,0,.34,0,.37.37,0,0,0,.06-.25c0-1.31,0-2.61,0-3.92,0-.19,0-.26-.42-.27h-1.88"/><path class="cls-25" d="M633.79,493.94c-.21,0-.26.11-.26.22,0,1.36,0,2.71,0,4.06,0,.17,0,.21.32.21h1.9a2.58,2.58,0,0,0,.29,0,.39.39,0,0,0,.06-.25v-3.93a.33.33,0,0,0-.06-.23,2.19,2.19,0,0,0-.52-.05h-1.72"/><path class="cls-25" d="M650.12,497.2c-.23,0-.28.11-.28.25,0,1.31,0,2.63,0,3.94,0,.23.08.28.44.28H652c.34,0,.42-.05.42-.27v-4c0-.19,0-.23-.37-.24h-1.92"/><path class="cls-25" d="M640.33,493.87c-.2,0-.23.09-.23.21v4.05a.58.58,0,0,0,0,.21c.81,0,1.63,0,2.41,0a.42.42,0,0,0,.11-.36v-3.85c0-.24,0-.28-.44-.28h-1.88"/><path class="cls-25" d="M643.63,497.2c-.22,0-.26.11-.26.24v4c0,.23.08.24.37.24h1.81a1.87,1.87,0,0,0,.34,0,.39.39,0,0,0,.06-.25c0-1.31,0-2.62,0-3.92,0-.2,0-.27-.42-.27h-1.88"/><path class="cls-25" d="M646.83,493.87c-.21,0-.26.1-.26.22v4.06c0,.17,0,.21.33.2h1.9a1.43,1.43,0,0,0,.29,0,.37.37,0,0,0,.06-.25v-3.92a.32.32,0,0,0-.06-.23,2.19,2.19,0,0,0-.52-.05h-1.72"/><path class="cls-25" d="M659.61,494c-.19,0-.23.09-.23.21v4.05a.45.45,0,0,0,.06.21c.8,0,1.62,0,2.41,0a.38.38,0,0,0,.08-.29v-3.92a.29.29,0,0,0-.06-.23,1.87,1.87,0,0,0-.54-.05h-1.7"/><path class="cls-25" d="M653.11,494c-.32.06-.32.06-.32.28v3.91c0,.26.06.3.46.3H655a.74.74,0,0,0,.38-.06.4.4,0,0,0,0-.23v-3.92a.33.33,0,0,0-.06-.23,1.3,1.3,0,0,0-.45-.05h-1.74"/><path class="cls-25" d="M666.15,494c-.24,0-.28.12-.28.25,0,1.33,0,2.67,0,4a.52.52,0,0,0,.06.22c.81,0,1.62,0,2.41,0a.39.39,0,0,0,.09-.29v-4c0-.2,0-.25-.4-.25h-1.85"/><path class="cls-25" d="M682.44,497.36c-.23,0-.28.11-.28.25,0,1.31,0,2.63,0,3.94,0,.23.08.28.44.28h1.75c.33,0,.41-.05.41-.27v-4c0-.19,0-.23-.37-.24h-1.92"/><path class="cls-25" d="M656.41,497.36c-.26,0-.26.14-.26.27v2.91c0,.32,0,.65,0,1a.44.44,0,0,0,.1.31h2.36a.42.42,0,0,0,.1-.34c0-1.29,0-2.57,0-3.85,0-.21,0-.27-.42-.27h-1.86"/><path class="cls-25" d="M672.65,494c-.2,0-.23.09-.23.21v4.05a.58.58,0,0,0,.05.21c.81,0,1.63,0,2.41,0a.42.42,0,0,0,.11-.36v-3.85c0-.24,0-.28-.44-.28h-1.88"/><path class="cls-25" d="M662.91,497.36c-.23,0-.28.12-.28.25v4c0,.2.08.25.39.25h1.86a1.43,1.43,0,0,0,.29,0c.06-.13.09-4.18,0-4.38a.82.82,0,0,0-.39-.06h-1.88"/><path class="cls-25" d="M669.45,497.36c-.23,0-.28.12-.28.25v4c0,.2.08.25.4.25h1.8a1.29,1.29,0,0,0,.29,0,.39.39,0,0,0,.09-.32c0-1.28,0-2.55,0-3.82,0-.28-.09-.3-.47-.3h-1.81"/><path class="cls-25" d="M676,497.36c-.22,0-.26.11-.26.24v4c0,.23.08.24.37.24h1.81a1.27,1.27,0,0,0,.34,0,.37.37,0,0,0,.06-.25c0-1.31,0-2.62,0-3.92,0-.2,0-.26-.42-.27H676"/><path class="cls-25" d="M679.15,494c-.21,0-.26.1-.26.22,0,1.35,0,2.71,0,4.06,0,.17,0,.21.32.21h1.9a2.58,2.58,0,0,0,.29,0,.4.4,0,0,0,.06-.26v-3.92a.33.33,0,0,0-.06-.23,2.19,2.19,0,0,0-.52-.05h-1.72"/><path class="cls-25" d="M695.48,497.29c-.23,0-.28.11-.28.25,0,1.31,0,2.62,0,3.94,0,.23.08.28.44.28h1.74c.34,0,.42-.05.42-.27v-4c0-.18,0-.22-.37-.23-.64,0-1.28,0-1.93,0"/><path class="cls-25" d="M685.69,494c-.2,0-.23.09-.23.2v4.06a.58.58,0,0,0,0,.2c.81,0,1.63,0,2.41,0a.42.42,0,0,0,.11-.36v-3.85c0-.25,0-.28-.44-.28h-1.88"/><path class="cls-25" d="M689,497.29c-.22,0-.26.11-.26.23v4c0,.23.08.24.37.24h1.81a1.87,1.87,0,0,0,.34,0,.39.39,0,0,0,.06-.25c0-1.31,0-2.62,0-3.93,0-.19,0-.26-.42-.26-.63,0-1.26,0-1.88,0"/><path class="cls-25" d="M692.19,494c-.21,0-.26.1-.26.22v4.05c0,.17.05.21.33.21h1.9a1.43,1.43,0,0,0,.29,0,.37.37,0,0,0,.06-.25v-3.92a.36.36,0,0,0-.06-.24,2.2,2.2,0,0,0-.52,0h-1.72"/><path class="cls-25" d="M705.39,494.05c-.2,0-.24.09-.24.2,0,1.36,0,2.71,0,4.06a.58.58,0,0,0,.05.21c.81,0,1.63,0,2.42,0a.44.44,0,0,0,.08-.29v-3.92a.32.32,0,0,0-.06-.23,1.91,1.91,0,0,0-.54-.05h-1.7"/><path class="cls-25" d="M698.89,494.05c-.32.06-.32.06-.32.28v3.91c0,.26.06.29.46.29h1.72a.85.85,0,0,0,.38,0,.41.41,0,0,0,0-.23v-3.92a.36.36,0,0,0-.06-.24,1.64,1.64,0,0,0-.45,0h-1.74"/><path class="cls-25" d="M711.93,494.05c-.24,0-.28.11-.28.25,0,1.33,0,2.66,0,4a.56.56,0,0,0,.06.22c.81,0,1.62,0,2.41,0a.41.41,0,0,0,.09-.29c0-1.32,0-2.63,0-3.95,0-.2,0-.25-.4-.25H712"/><path class="cls-25" d="M728.22,497.38c-.23,0-.28.11-.28.25v3.94c0,.23.08.28.44.28h1.74c.34,0,.42-.05.42-.27v-4c0-.18,0-.22-.37-.23h-1.93"/><path class="cls-25" d="M702.19,497.38c-.26,0-.26.14-.26.26v3.88a.41.41,0,0,0,.1.31h2.36a.41.41,0,0,0,.09-.34c0-1.28,0-2.56,0-3.85,0-.2,0-.26-.42-.26h-1.86"/><path class="cls-25" d="M718.43,494.05c-.2,0-.24.09-.24.2,0,1.36,0,2.71,0,4.06a.58.58,0,0,0,0,.21c.81,0,1.63,0,2.41,0a.42.42,0,0,0,.11-.36v-3.85c0-.25,0-.28-.44-.28h-1.88"/><path class="cls-25" d="M708.68,497.38c-.23,0-.28.12-.28.25,0,1.32,0,2.64,0,4,0,.2.08.25.39.25h1.86a1.43,1.43,0,0,0,.29,0c.06-.13.09-4.18,0-4.39a1,1,0,0,0-.39-.05h-1.88"/><path class="cls-25" d="M715.23,497.38c-.23,0-.28.12-.28.25v4c0,.2.08.25.39.25h1.81a1.36,1.36,0,0,0,.29,0,.4.4,0,0,0,.08-.33c0-1.27,0-2.54,0-3.82,0-.27-.09-.29-.47-.29h-1.81"/><path class="cls-25" d="M721.72,497.38c-.22,0-.25.11-.25.23v4c0,.23.08.24.37.24h1.81a2,2,0,0,0,.34,0,.38.38,0,0,0,0-.25c0-1.31,0-2.62,0-3.93,0-.19,0-.26-.42-.26h-1.88"/><path class="cls-25" d="M724.93,494.05c-.21,0-.26.1-.26.22v4.06c0,.17.05.2.33.2h1.9a1.43,1.43,0,0,0,.29,0,.37.37,0,0,0,.06-.25v-3.92a.36.36,0,0,0-.06-.24,2.89,2.89,0,0,0-.52,0H725"/><path class="cls-25" d="M741.26,497.3c-.23,0-.28.12-.28.26v3.93c0,.24.08.29.44.29h1.74c.34,0,.42-.06.42-.27v-4c0-.19,0-.22-.37-.23-.64,0-1.29,0-1.93,0"/><path class="cls-25" d="M731.47,494c-.2,0-.24.1-.24.21,0,1.35,0,2.71,0,4.06a.63.63,0,0,0,.06.2c.81,0,1.62,0,2.41,0a.41.41,0,0,0,.11-.36v-3.85c0-.24,0-.27-.44-.28h-1.88"/><path class="cls-25" d="M734.76,497.3c-.22,0-.26.12-.25.24v4c0,.22.08.24.37.24h1.81a1.32,1.32,0,0,0,.34,0,.36.36,0,0,0,.05-.25c0-1.3,0-2.61,0-3.92,0-.19,0-.26-.42-.26h-1.88"/><path class="cls-25" d="M738,494c-.2,0-.25.11-.25.23v4.05c0,.17,0,.21.32.21h1.91a1.43,1.43,0,0,0,.29,0,.39.39,0,0,0,.06-.25q0-2,0-3.93a.31.31,0,0,0-.07-.23,2.67,2.67,0,0,0-.51,0H738"/><path class="cls-25" d="M751.09,494c-.19,0-.23.1-.23.21v4.06a.45.45,0,0,0,.06.2c.8,0,1.62,0,2.41,0a.38.38,0,0,0,.09-.28q0-2,0-3.93a.35.35,0,0,0-.06-.23,2.45,2.45,0,0,0-.55-.05h-1.69"/><path class="cls-25" d="M744.6,494c-.33.06-.33.06-.33.28v3.91c0,.26.06.3.47.3h1.71a.83.83,0,0,0,.38,0,.35.35,0,0,0,0-.23v-3.93a.3.3,0,0,0-.06-.23,1.59,1.59,0,0,0-.45-.05h-1.74"/><path class="cls-25" d="M757.64,494c-.24,0-.28.12-.28.25v4a.39.39,0,0,0,.06.22c.8,0,1.62,0,2.41,0a.37.37,0,0,0,.08-.28v-4c0-.2,0-.25-.39-.25h-1.86"/><path class="cls-25" d="M773.93,497.36c-.23,0-.29.11-.29.26,0,1.31,0,2.62,0,3.93,0,.24.07.29.44.28h1.74c.34,0,.42-.05.42-.26,0-1.32,0-2.65,0-4,0-.19,0-.23-.38-.23-.64,0-1.28,0-1.92,0"/><path class="cls-25" d="M747.89,497.36c-.25,0-.25.15-.25.27v3.88a.43.43,0,0,0,.09.31h2.36a.39.39,0,0,0,.1-.34v-3.85c0-.2,0-.27-.42-.27h-1.85"/><path class="cls-25" d="M764.13,494c-.19,0-.23.1-.23.21v4.06a.45.45,0,0,0,.06.2c.8,0,1.62,0,2.4,0a.43.43,0,0,0,.12-.36v-3.85c0-.24-.05-.27-.44-.28h-1.88"/><path class="cls-25" d="M754.39,497.36c-.23,0-.28.12-.28.26v4c0,.2.08.25.4.25h1.85a.92.92,0,0,0,.29,0c.06-.13.1-4.18,0-4.38a1,1,0,0,0-.4-.06h-1.88"/><path class="cls-25" d="M760.93,497.36c-.23,0-.28.12-.28.26,0,1.32,0,2.64,0,4,0,.2.09.25.4.25h1.81a1,1,0,0,0,.29,0,.42.42,0,0,0,.08-.32v-3.82c0-.28-.08-.3-.46-.3H761"/><path class="cls-25" d="M767.43,497.36c-.22,0-.26.12-.26.24,0,1.33,0,2.66,0,4,0,.22.08.24.38.24h1.8a1,1,0,0,0,.34,0,.37.37,0,0,0,.06-.25v-3.92c0-.19,0-.26-.42-.27h-1.88"/><path class="cls-25" d="M770.63,494c-.21,0-.26.11-.26.22,0,1.36,0,2.71,0,4.06,0,.17,0,.21.32.21h1.9a1.36,1.36,0,0,0,.29,0,.39.39,0,0,0,.06-.25v-3.93a.3.3,0,0,0-.06-.23,2.87,2.87,0,0,0-.52-.05h-1.72"/><path class="cls-25" d="M787,497.29c-.22,0-.28.11-.28.25,0,1.31,0,2.63,0,3.94,0,.23.07.28.44.28h1.74c.34,0,.42-.05.42-.27q0-2,0-4c0-.19,0-.23-.38-.24-.64,0-1.28,0-1.92,0"/><path class="cls-25" d="M777.17,494c-.19,0-.23.09-.23.21v4.05a.45.45,0,0,0,.06.21c.8,0,1.62,0,2.4,0a.44.44,0,0,0,.12-.36v-3.85c0-.24,0-.28-.44-.28H777.2"/><path class="cls-25" d="M780.47,497.29c-.22,0-.26.11-.26.24v4c0,.23.08.24.37.24h1.81a1.27,1.27,0,0,0,.34,0,.37.37,0,0,0,.06-.25v-3.92c0-.2,0-.27-.42-.27h-1.88"/><path class="cls-25" d="M783.67,494c-.21,0-.26.1-.26.22,0,1.35,0,2.71,0,4.06,0,.17,0,.21.32.21h1.9a1.35,1.35,0,0,0,.29,0,.37.37,0,0,0,.06-.25v-3.92a.28.28,0,0,0-.06-.23,2.19,2.19,0,0,0-.52-.05h-1.72"/><path class="cls-25" d="M796.87,494.05c-.19,0-.23.09-.23.21v4.05a.45.45,0,0,0,.06.21c.8,0,1.62,0,2.41,0a.38.38,0,0,0,.08-.29v-3.92a.29.29,0,0,0-.06-.23,1.87,1.87,0,0,0-.54-.05H796.9"/><path class="cls-25" d="M790.38,494.05c-.33.06-.33.06-.33.28v3.91c0,.26.06.3.47.3h1.71a.86.86,0,0,0,.38-.06.4.4,0,0,0,0-.23v-3.92a.33.33,0,0,0-.06-.23,1.3,1.3,0,0,0-.45-.05H790.4"/><path class="cls-25" d="M803.42,494.05c-.24,0-.29.12-.29.25,0,1.33,0,2.67,0,4a.41.41,0,0,0,.06.22c.8,0,1.62,0,2.41,0a.43.43,0,0,0,.08-.29V494.3c0-.2,0-.25-.4-.25h-1.85"/><path class="cls-25" d="M819.7,497.38c-.22,0-.28.11-.28.25,0,1.31,0,2.63,0,3.94,0,.23.08.28.45.28h1.74c.33,0,.41-.05.41-.27,0-1.32,0-2.64,0-4,0-.19,0-.23-.38-.24h-1.92"/><path class="cls-25" d="M793.67,497.38c-.26,0-.25.14-.25.27v2.91c0,.32,0,.64,0,1a.44.44,0,0,0,.1.31h2.36a.42.42,0,0,0,.1-.34v-3.85c0-.21,0-.27-.42-.27h-1.86"/><path class="cls-25" d="M809.91,494.05c-.19,0-.23.09-.23.21v4.05a.45.45,0,0,0,.06.21c.8,0,1.62,0,2.4,0a.44.44,0,0,0,.12-.36v-3.85c0-.24,0-.28-.45-.28h-1.87"/><path class="cls-25" d="M800.17,497.38c-.23,0-.28.12-.28.25v4c0,.2.08.25.39.25h1.86a1.43,1.43,0,0,0,.29,0c.06-.13.09-4.18,0-4.38a.82.82,0,0,0-.39-.06h-1.88"/><path class="cls-25" d="M806.71,497.38c-.23,0-.28.12-.28.25v4c0,.2.08.25.4.25h1.81a1.43,1.43,0,0,0,.29,0,.42.42,0,0,0,.08-.32v-3.82c0-.28-.09-.3-.47-.3h-1.81"/><path class="cls-25" d="M813.21,497.38c-.22,0-.26.11-.26.24v4c0,.23.08.24.37.24h1.81a1.27,1.27,0,0,0,.34,0,.37.37,0,0,0,.06-.25c0-1.31,0-2.62,0-3.92,0-.2,0-.26-.42-.27h-1.88"/><path class="cls-25" d="M816.41,494.05c-.21,0-.26.1-.26.22,0,1.35,0,2.71,0,4.06,0,.17,0,.21.32.21.63,0,1.27,0,1.9,0a2.58,2.58,0,0,0,.29,0,.4.4,0,0,0,.06-.26v-3.92a.33.33,0,0,0-.06-.23,2.19,2.19,0,0,0-.52-.05h-1.72"/><path class="cls-25" d="M832.74,497.31c-.23,0-.28.11-.28.25,0,1.31,0,2.62,0,3.94,0,.23.08.28.45.28h1.74c.33,0,.41,0,.41-.27v-4c0-.18,0-.22-.37-.23h-1.92"/><path class="cls-25" d="M823,494c-.19,0-.23.09-.23.2v4.06a.45.45,0,0,0,.06.2c.8,0,1.62,0,2.4,0a.42.42,0,0,0,.11-.36v-3.85c0-.25,0-.28-.44-.28H823"/><path class="cls-25" d="M826.25,497.31c-.22,0-.26.11-.26.23v4c0,.23.08.24.37.24h1.81a1.87,1.87,0,0,0,.34,0,.39.39,0,0,0,.06-.25c0-1.31,0-2.62,0-3.93,0-.19,0-.26-.42-.26h-1.88"/><path class="cls-25" d="M829.45,494c-.21,0-.26.1-.26.22,0,1.35,0,2.7,0,4.05,0,.17,0,.21.32.21h1.9a1.36,1.36,0,0,0,.29,0,.37.37,0,0,0,.06-.25v-3.92a.36.36,0,0,0-.06-.24,2.2,2.2,0,0,0-.52,0h-1.72"/><line class="cls-13" x1="397.6" y1="136.07" x2="395.6" y2="136.07"/><line class="cls-14" x1="391.48" y1="136.07" x2="344.06" y2="136.07"/><line class="cls-13" x1="342" y1="136.07" x2="340" y2="136.07"/><line class="cls-13" x1="840.39" y1="273.79" x2="838.39" y2="273.79"/><line class="cls-26" x1="834.18" y1="273.79" x2="802.65" y2="273.79"/><line class="cls-13" x1="800.55" y1="273.79" x2="798.55" y2="273.79"/><text class="cls-27" transform="translate(846.88 278.8)">stitches</text></svg>